# xmcd
#
# Track frame offsets: 
#        150
#        3854
#        35265
#        61834
#        92375
#        112092
#        131335
#        160697
#        184821
#        232859
#        256237
#
# Disc length: 3697 seconds
#
# Revision: 0
# Processed by: cddbd v1.5.2PL0 Copyright (c) Steve Scherf et al.
# Submitted via: ExactAudioCopy v0.99pb1
#
DISCID=770e6f0b
DTITLE=Billy Goodman - Neuenkirchen Dec 1 2007 2
DYEAR=1900
DGENRE=
TTITLE0=Intro
TTITLE1=Willin' (Lowell George)
TTITLE2=Love is a Test
TTITLE3=Hellhound on my Trail (Robert Johnson)
TTITLE4=Walk the Street Alone
TTITLE5=Keep Your Lamp Trimmed and Burning (Blind Willie Johnson)
TTITLE6=Ship At Sea
TTITLE7=Dead Flowers (Jagger\\Richards)
TTITLE8=Good Shepherd
TTITLE9=Barbed Wire
TTITLE10=Catch the Wind (Donovan)
EXTD=
EXTT0=
EXTT1=
EXTT2=
EXTT3=
EXTT4=
EXTT5=
EXTT6=
EXTT7=
EXTT8=
EXTT9=
EXTT10=
PLAYORDER=
